<svg xmlns="http://www.w3.org/2000/svg" viewBox="0 0 256 256" role="img" aria-label="心旅ブログ icon">
  <defs>
    <linearGradient id="bg" x1="0" y1="0" x2="1" y2="1">
      <stop offset="0" stop-color="#0f766e"/>
      <stop offset="1" stop-color="#2563eb"/>
    </linearGradient>
    <linearGradient id="path" x1="0" y1="0" x2="1" y2="0">
      <stop offset="0" stop-color="#f59e0b"/>
      <stop offset="1" stop-color="#f97316"/>
    </linearGradient>
  </defs>
  <rect width="256" height="256" rx="56" fill="url(#bg)"/>
  <path d="M128 208c-2 0-4-1-6-2-26-19-42-33-54-48-16-19-25-38-25-58 0-30 22-52 51-52 15 0 28 7 34 18 6-11 19-18 34-18 29 0 51 22 51 52 0 20-9 39-25 58-12 15-28 29-54 48-2 1-4 2-6 2z" fill="#fff" opacity=".95"/>
  <path d="M47 173c27-24 52-26 77-8 24 17 46 14 66-8" fill="none" stroke="url(#path)" stroke-linecap="round" stroke-width="16"/>
  <circle cx="61" cy="173" r="10" fill="#fde68a"/>
  <circle cx="193" cy="157" r="10" fill="#fdba74"/>
</svg>
